<?xml version="1.0" encoding="utf-8"?>
<!-- Uploaded to: SVG Repo, www.svgrepo.com, Generator: SVG Repo Mixer Tools -->
<svg fill="#000000" width="800px" height="800px" viewBox="0 0 32 32" version="1.1" xmlns="http://www.w3.org/2000/svg">
<title>hand-holding-gift</title>
<path d="M29.064 19.701c-0.421-0.177-0.91-0.28-1.423-0.28-0.577 0-1.123 0.13-1.611 0.362l0.023-0.010-5.778 2.595c0.003-0.047 0.026-0.087 0.026-0.134-0.015-1.371-1.129-2.476-2.502-2.476-0.069 0-0.137 0.003-0.204 0.008l0.009-0.001h-3.783l-4.76-1.395c-0.062-0.020-0.133-0.031-0.207-0.031-0.001 0-0.003 0-0.004 0h-2.169v-0.757c-0-0.414-0.336-0.75-0.75-0.75h-3.883c-0.414 0-0.75 0.336-0.75 0.75v0 12.208c0 0.414 0.336 0.75 0.75 0.75h3.883c0.414-0 0.75-0.336 0.75-0.75v0-1.005c1.818 0.284 3.445 0.742 4.987 1.367l-0.149-0.054c1.15 0.416 2.478 0.656 3.862 0.656 0.007 0 0.014 0 0.021-0h-0.001c0.005 0 0.011 0 0.017 0 1.604 0 3.133-0.319 4.528-0.898l-0.078 0.029c1.243-0.553 2.298-1.136 3.297-1.799l-0.082 0.051c0.338-0.209 0.674-0.418 1.014-0.619 1.633-0.967 2.945-1.816 4.129-2.672 0.579-0.412 1.083-0.819 1.563-1.253l-0.014 0.013c0.373-0.302 0.671-0.682 0.871-1.116l0.008-0.019c0.031-0.079 0.048-0.17 0.048-0.266 0-0.057-0.006-0.112-0.018-0.165l0.001 0.005c-0.146-1.017-0.755-1.866-1.603-2.337l-0.016-0.008zM5.181 29.041h-2.383v-10.709h2.383zM28.719 22.541c-0.412 0.37-0.86 0.729-1.328 1.062l-0.047 0.032c-1.143 0.826-2.418 1.65-4.014 2.596-0.348 0.205-0.691 0.418-1.037 0.631-0.854 0.573-1.837 1.12-2.864 1.586l-0.13 0.053c-1.152 0.474-2.49 0.748-3.892 0.748-1.203 0-2.359-0.203-3.436-0.575l0.074 0.022c-1.555-0.648-3.363-1.145-5.248-1.407l-0.117-0.013v-7.436h2.062l4.76 1.395c0.062 0.020 0.133 0.031 0.207 0.031 0.001 0 0.003 0 0.004 0h3.89c0.883 0 1.197 0.521 1.197 0.969s-0.314 0.969-1.197 0.969h-6.809c-0.414 0-0.75 0.336-0.75 0.75s0.336 0.75 0.75 0.75v0h7.781c0.001 0 0.003 0 0.004 0 0.11 0 0.214-0.024 0.307-0.068l-0.004 0.002 7.795-3.5c0.288-0.132 0.625-0.209 0.98-0.209 0.265 0 0.52 0.043 0.758 0.122l-0.017-0.005c0.383 0.23 0.658 0.604 0.752 1.046l0.002 0.011c-0.136 0.159-0.278 0.302-0.429 0.435l-0.005 0.004zM10.251 9.82v4.18c0.002 1.518 1.232 2.748 2.75 2.75h7.999c1.518-0.002 2.748-1.232 2.75-2.75v-4.181c0.598-0.395 0.989-1.061 1-1.818l0-0.002v-0.5c-0.011-1.045-0.741-1.917-1.719-2.143l-0.015-0.003c0.271-0.425 0.432-0.944 0.432-1.499 0-0.219-0.025-0.432-0.072-0.637l0.004 0.019c-0.256-0.995-1.054-1.752-2.054-1.944l-0.017-0.003c-0.126-0.019-0.271-0.030-0.418-0.030-1.062 0-1.991 0.57-2.498 1.42l-0.007 0.013-1.384 1.991-1.384-1.991c-0.517-0.864-1.447-1.433-2.511-1.433-0.146 0-0.29 0.011-0.43 0.032l0.016-0.002c-1.015 0.195-1.814 0.952-2.065 1.928l-0.004 0.018c-0.044 0.186-0.069 0.4-0.069 0.619 0 0.555 0.161 1.073 0.438 1.509l-0.007-0.011c-0.993 0.229-1.724 1.1-1.734 2.144v0.501c0.011 0.759 0.402 1.424 0.992 1.814l0.008 0.005zM11.751 14v-3.75h4.5v5h-3.25c-0.69-0.001-1.249-0.56-1.25-1.25v-0zM22.25 14c-0.001 0.69-0.56 1.249-1.25 1.25h-3.249v-5h4.499zM23.25 7.5v0.5c-0 0.414-0.336 0.75-0.75 0.75h-4.749v-2h4.749c0.414 0 0.75 0.336 0.75 0.75v0zM19.615 3.55c0.252-0.472 0.741-0.788 1.305-0.788 0.042 0 0.083 0.002 0.125 0.005l-0.005-0c0.433 0.089 0.773 0.413 0.883 0.83l0.002 0.008c0.009 0.066 0.014 0.142 0.014 0.219 0 0.586-0.288 1.105-0.73 1.423l-0.005 0.004h-2.767zM12.077 3.604c0.112-0.425 0.451-0.749 0.876-0.837l0.007-0.001c0.035-0.003 0.077-0.005 0.118-0.005 0.563 0 1.053 0.316 1.302 0.78l0.004 0.008 1.182 1.7h-2.768c-0.447-0.322-0.735-0.841-0.735-1.427 0-0.077 0.005-0.153 0.015-0.227l-0.001 0.009zM10.751 7.5c0.001-0.414 0.336-0.749 0.75-0.75h4.75v2h-4.75c-0.414-0.001-0.749-0.336-0.75-0.75v-0z"></path>
</svg>